<?xml version="1.0" encoding="iso-8859-1"?>
<!-- Generator: Adobe Illustrator 18.1.1, SVG Export Plug-In . SVG Version: 6.00 Build 0)  -->
<svg version="1.1" id="Capa_1" xmlns="http://www.w3.org/2000/svg" xmlns:xlink="http://www.w3.org/1999/xlink" x="0px" y="0px"
	 viewBox="0 0 17.25 17.25" style="enable-background:new 0 0 17.25 17.25;" xml:space="preserve">
<g>
	<path style="fill:#030104;" d="M12.184,3.559c-1.225,0-2.35,0.437-3.226,1.163c-0.952-0.885-2.224-1.43-3.625-1.43
		C2.388,3.291,0,5.679,0,8.625s2.388,5.334,5.333,5.334c1.402,0,2.673-0.545,3.625-1.43c0.876,0.725,2.001,1.162,3.226,1.162
		c2.793,0,5.066-2.272,5.066-5.066S14.977,3.559,12.184,3.559z M12.184,12.372c-0.9,0-1.729-0.32-2.375-0.854
		c0.539-0.833,0.857-1.825,0.857-2.893s-0.318-2.06-0.857-2.893C10.455,5.2,11.284,4.88,12.184,4.88c2.064,0,3.744,1.68,3.744,3.745
		S14.248,12.372,12.184,12.372z"/>
</g>
<g>
</g>
<g>
</g>
<g>
</g>
<g>
</g>
<g>
</g>
<g>
</g>
<g>
</g>
<g>
</g>
<g>
</g>
<g>
</g>
<g>
</g>
<g>
</g>
<g>
</g>
<g>
</g>
<g>
</g>
</svg>
